<svg id="visual" viewBox="0 0 900 600" width="900" height="600" xmlns="http://www.w3.org/2000/svg" xmlns:xlink="http://www.w3.org/1999/xlink" version="1.1"><g><g transform="translate(56 558)"><path d="M74.3 -95.7C94 -72 106.2 -46.4 108.9 -20.7C111.6 5 104.9 30.9 94 58.5C83.1 86.2 68 115.7 45 124.3C22.1 132.9 -8.7 120.6 -39.5 109.1C-70.3 97.6 -101.2 87 -121.8 64.1C-142.3 41.3 -152.5 6.3 -148.4 -27.7C-144.2 -61.7 -125.8 -94.8 -98.6 -117.1C-71.5 -139.4 -35.8 -151 -4.2 -145.9C27.3 -140.9 54.6 -119.3 74.3 -95.7Z" fill="#0d324d"></path></g><g transform="translate(15 118)"><path d="M62.2 -74.2C79.6 -59.4 92.2 -39 96.8 -16.5C101.4 5.9 98 30.3 84.8 45.1C71.7 60 48.7 65.4 27.6 70.9C6.5 76.3 -12.7 82 -30.7 78.1C-48.8 74.3 -65.7 61 -72.4 44.3C-79.1 27.6 -75.5 7.5 -72 -12.7C-68.5 -32.9 -65 -53.1 -53 -68.8C-41 -84.6 -20.5 -95.8 0.9 -96.9C22.4 -98 44.7 -89 62.2 -74.2Z" fill="#0d324d"></path></g><g transform="translate(669 268)"><path d="M59.4 -71.4C73.5 -58.9 79.2 -36.9 81.8 -15.4C84.4 6.1 84 27.2 76.8 48.9C69.7 70.5 55.8 92.8 35.2 103C14.7 113.2 -12.6 111.3 -35.8 101.5C-59.1 91.7 -78.5 74.1 -89.7 52.7C-100.9 31.4 -103.9 6.3 -100.8 -19C-97.8 -44.2 -88.7 -69.5 -70.9 -81.4C-53.1 -93.3 -26.5 -91.7 -2 -89.3C22.6 -87 45.3 -84 59.4 -71.4Z" fill="#0d324d"></path></g></g></svg>